<?xml version="1.0" encoding="UTF-8" standalone="no"?>
<!-- Created with Inkscape (http://www.inkscape.org/) -->

<svg
   xmlns:dc="http://purl.org/dc/elements/1.1/"
   xmlns:cc="http://creativecommons.org/ns#"
   xmlns:rdf="http://www.w3.org/1999/02/22-rdf-syntax-ns#"
   xmlns:svg="http://www.w3.org/2000/svg"
   xmlns="http://www.w3.org/2000/svg"
   xmlns:sodipodi="http://sodipodi.sourceforge.net/DTD/sodipodi-0.dtd"
   xmlns:inkscape="http://www.inkscape.org/namespaces/inkscape"
   width="162.08699"
   height="35.75573"
   viewBox="0 0 42.885518 9.46037"
   version="1.1"
   id="svg67"
   inkscape:version="0.92.2 2405546, 2018-03-11"
   sodipodi:docname="_logo.svg">
  <defs
     id="defs61" />
  <sodipodi:namedview
     id="base"
     pagecolor="#4d4d4d"
     bordercolor="#666666"
     borderopacity="1.0"
     inkscape:pageopacity="0"
     inkscape:pageshadow="2"
     inkscape:zoom="2.8"
     inkscape:cx="77.473405"
     inkscape:cy="39.974053"
     inkscape:document-units="px"
     inkscape:current-layer="layer1"
     showgrid="false"
     fit-margin-top="0"
     fit-margin-left="0"
     fit-margin-right="0"
     fit-margin-bottom="0"
     inkscape:showpageshadow="false"
     units="px"
     inkscape:window-width="1078"
     inkscape:window-height="933"
     inkscape:window-x="0"
     inkscape:window-y="18"
     inkscape:window-maximized="0"
     inkscape:pagecheckerboard="false"
     showguides="true"
     inkscape:guide-bbox="true" />
  <metadata
     id="metadata64">
    <rdf:RDF>
      <cc:Work
         rdf:about="">
        <dc:format>image/svg+xml</dc:format>
        <dc:type
           rdf:resource="http://purl.org/dc/dcmitype/StillImage" />
        <dc:title></dc:title>
      </cc:Work>
    </rdf:RDF>
  </metadata>
  <g
     inkscape:label="Capa 1"
     inkscape:groupmode="layer"
     id="layer1"
     transform="translate(188.23184,-55.374486)">
    <text
       xml:space="preserve"
       style="font-style:normal;font-variant:normal;font-weight:bold;font-stretch:normal;font-size:5.24984741px;line-height:1.25;font-family:'Passion One';-inkscape-font-specification:'Passion One, Bold';font-variant-ligatures:normal;font-variant-caps:normal;font-variant-numeric:normal;font-feature-settings:normal;text-align:start;letter-spacing:0px;word-spacing:0px;writing-mode:lr-tb;text-anchor:start;fill:#ffffff;fill-opacity:1;stroke:none;stroke-width:0.13125128"
       x="-181.08556"
       y="61.473576"
       id="text291"><tspan
         sodipodi:role="line"
         id="tspan289"
         x="-181.08556"
         y="61.473576"
         style="font-style:normal;font-variant:normal;font-weight:bold;font-stretch:normal;font-size:5.24984741px;font-family:'Passion One';-inkscape-font-specification:'Passion One, Bold';font-variant-ligatures:normal;font-variant-caps:normal;font-variant-numeric:normal;font-feature-settings:normal;text-align:start;writing-mode:lr-tb;text-anchor:start;fill:#ffffff;stroke-width:0.13125128">PLANE DESIGNER</tspan></text>
    <g
       transform="matrix(0.02306852,0,0,0.02309667,-190.68041,55.397583)"
       id="g22"
       style="fill:#ffffff">
      <g
         id="g20"
         style="fill:#ffffff">
        <g
           id="g18"
           style="fill:#ffffff">
          <path
             d="M 1965.0621,357.4 H 400.067 V 306.2 H 1965.0621 V 289.134 H 400.067 v -25.6 c 0,-5.12 -3.413,-8.533 -8.533,-8.533 H 313.88 v -42.24 C 354.486,196.308 383,156.565 383,109.933 383,48.493 333.507,-1 272.067,-1 c -61.44,0 -110.934,49.493 -110.934,110.933 0,46.305 28.115,85.819 68.267,102.479 V 255 h -76.8 c -5.12,0 -8.533,3.413 -8.533,8.533 v 25.84 l -37.79344,-0.1214 0.1253,17.17259 L 144.066,306.2 v 49.493 l -37.54207,-0.004 -0.38039,17.67767 37.92146,-0.0508 v 26.75 c 0,5.12 3.413,8.533 8.533,8.533 h 238.933 c 5.12,0 8.533,-3.413 8.533,-8.533 v -25.6 H 1965.0591 Z M 296.678,200.488 c -0.495,0.131 -0.988,0.276 -1.484,0.399 -0.097,0.025 -0.196,0.047 -0.293,0.072 -7.641,1.879 -15.368,2.825 -23.097,2.838 -0.292,-0.001 -0.583,-0.008 -0.874,-0.011 -0.599,-0.004 -1.199,-0.021 -1.798,-0.037 -15.515,-0.486 -30.173,-4.805 -43.009,-12.063 11.096,-14.395 28.095,-22.019 45.943,-22.019 17.849,0 34.847,7.624 45.943,22.019 -6.663,3.768 -13.819,6.743 -21.331,8.802 z M 178.2,109.933 c 0,-52.053 42.667,-93.867 93.867,-93.867 52.053,0 93.867,41.813 93.867,93.867 0,28.87 -13.129,54.585 -33.555,71.769 C 317.7,163.289 296.221,152.6 272.067,152.6 c -23.26,0 -45.197,10.559 -60.017,29.35 -20.595,-17.183 -33.85,-43.007 -33.85,-72.017 z m 68.267,107.987 c 0.568,0.134 1.141,0.254 1.712,0.379 0.632,0.138 1.264,0.274 1.899,0.401 0.624,0.125 1.249,0.244 1.876,0.358 0.568,0.103 1.139,0.198 1.71,0.293 0.928,0.154 1.86,0.296 2.795,0.427 0.656,0.092 1.312,0.181 1.971,0.261 0.557,0.068 1.116,0.131 1.675,0.19 0.886,0.094 1.776,0.177 2.669,0.251 0.439,0.036 0.879,0.071 1.319,0.102 1.032,0.073 2.068,0.13 3.108,0.174 0.367,0.016 0.734,0.03 1.101,0.042 1.25,0.041 2.503,0.07 3.763,0.07 1.264,0 2.521,-0.029 3.774,-0.07 0.356,-0.012 0.712,-0.025 1.067,-0.04 1.121,-0.048 2.238,-0.108 3.35,-0.189 0.248,-0.018 0.496,-0.037 0.744,-0.056 1.1,-0.087 2.194,-0.193 3.284,-0.312 0.356,-0.039 0.711,-0.079 1.066,-0.121 4.182,-0.495 8.292,-1.219 12.316,-2.163 V 255 h -51.2 V 217.92 Z M 383,391.533 H 161.133 v -27.307 -66.56 -25.6 h 76.8 68.267 76.8 v 25.6 68.267 z"
             id="path2"
             inkscape:connector-curvature="0"
             sodipodi:nodetypes="ccccccssccsssccssccccccccssssccccccccccsccssscscsccccccccccccscccccccccccccccccccccc"
             style="fill:#ffffff" />
          <path
             d="M 340.333,297.667 H 203.8 c -5.12,0 -8.533,3.413 -8.533,8.533 v 51.2 c 0,5.12 3.413,8.533 8.533,8.533 h 136.533 c 5.12,0 8.533,-3.413 8.533,-8.533 v -51.2 c 0.001,-5.12 -3.413,-8.533 -8.533,-8.533 z m -8.533,51.2 H 212.333 V 314.734 H 331.8 Z"
             id="path4"
             inkscape:connector-curvature="0"
             style="fill:#ffffff" />
          <path
             d="m 212.333,109.933 c 0,-4.267 -3.413,-8.533 -8.533,-8.533 -5.12,0 -8.533,3.413 -8.533,8.533 0,5.12 3.413,8.533 8.533,8.533 5.12,0.001 8.533,-3.413 8.533,-8.533 z"
             id="path6"
             inkscape:connector-curvature="0"
             style="fill:#ffffff" />
          <path
             d="m 340.333,118.467 c 5.12,0 8.533,-3.413 8.533,-8.533 0,-4.267 -3.413,-8.533 -8.533,-8.533 -5.12,0 -8.533,3.413 -8.533,8.533 0,5.12 3.413,8.533 8.533,8.533 z"
             id="path8"
             inkscape:connector-curvature="0"
             style="fill:#ffffff" />
          <path
             d="m 220.867,75.8 c 5.12,0 8.533,-3.413 8.533,-8.533 0,-4.267 -3.413,-8.533 -8.533,-8.533 -5.12,0 -8.533,3.413 -8.533,8.533 0,5.12 3.413,8.533 8.533,8.533 z"
             id="path10"
             inkscape:connector-curvature="0"
             style="fill:#ffffff" />
          <path
             d="m 272.067,50.2 c 5.12,0 8.533,-3.413 8.533,-8.533 0,-4.267 -3.413,-8.533 -8.533,-8.533 -5.12,0 -8.533,3.413 -8.533,8.533 0,5.12 3.413,8.533 8.533,8.533 z"
             id="path12"
             inkscape:connector-curvature="0"
             style="fill:#ffffff" />
          <path
             d="m 323.267,75.8 c 5.12,0 8.533,-3.413 8.533,-8.533 0,-4.267 -3.413,-8.533 -8.533,-8.533 -5.12,0 -8.533,3.413 -8.533,8.533 0,5.12 3.413,8.533 8.533,8.533 z"
             id="path14"
             inkscape:connector-curvature="0"
             style="fill:#ffffff" />
          <path
             d="m 265.24,132.12 c 1.707,2.56 7.68,2.56 11.093,0.853 3.413,-2.56 4.267,-8.533 0.853,-11.947 l -28.16,-34.133 c -2.56,-3.413 -8.533,-4.267 -11.947,-0.853 -3.413,2.56 -4.267,8.533 -0.853,11.947 z"
             id="path16"
             inkscape:connector-curvature="0"
             style="fill:#ffffff" />
        </g>
      </g>
    </g>
  </g>
</svg>
